<?xml version="1.0" encoding="utf-8"?>
<!-- Generator: Adobe Illustrator 16.0.0, SVG Export Plug-In . SVG Version: 6.00 Build 0)  -->
<!DOCTYPE svg PUBLIC "-//W3C//DTD SVG 1.1//EN" "http://www.w3.org/Graphics/SVG/1.1/DTD/svg11.dtd">
<svg version="1.1" id="Layer_1" xmlns="http://www.w3.org/2000/svg" xmlns:xlink="http://www.w3.org/1999/xlink" x="0px" y="0px"
	 width="208px" height="61px" viewBox="0 0 208 61" enable-background="new 0 0 208 61" xml:space="preserve">
<path fill="#224194" d="M61.584,38.509h16.023l-1.639,4.75H65.581l-1.239,3.64h10.125l-1.643,4.783H62.698l-1.374,3.933h10.388
	l-1.641,4.751H54.049L61.584,38.509z M83.759,46.471l-4.775,13.895h-5.635l7.535-21.855h5.799l4.28,13.271L95.53,38.51h5.667
	l-7.535,21.855h-5.439L83.759,46.471z M114.811,38.148c4.85,0,7.596,2.687,8.517,5.537l-5.444,2.164
	c-0.428-1.574-2.281-2.721-4.51-2.721c-3.705,0-7.182,3.212-7.695,7.339c-0.352,2.818,1.338,5.31,4.875,5.31
	c1.575,0,2.854-0.558,3.932-1.312l0.623-1.835h-5.047l1.668-4.72h10.553l-3.006,8.619c-2.426,2.653-5.866,4.227-9.67,4.227
	c-5.996,0-10.614-3.702-9.839-9.929C100.664,43.589,106.88,38.148,114.811,38.148z M128.823,38.509h5.635l-7.536,21.855h-5.635
	L128.823,38.509z M141.266,46.471l-4.773,13.895h-5.637l7.533-21.855h5.801l4.279,13.271l4.566-13.271h5.669l-7.534,21.855h-5.441
	L141.266,46.471z M162.637,38.509h16.023l-1.639,4.75h-10.389l-1.238,3.64h10.123l-1.642,4.783H163.75l-1.374,3.933h10.388
	l-1.641,4.751h-16.021L162.637,38.509z M178.212,52.632c1.327,1.998,4.112,3.312,7.028,3.312c1.867,0,2.707-0.951,2.812-1.805
	c0.132-1.05-1.17-1.638-2.991-2.293c-2.914-1.049-6.859-2.522-6.33-6.783c0.39-3.11,3.901-6.879,9.705-6.879
	c3.537,0,6.785,1.276,8.69,3.604l-3.854,3.865c-1.379-1.834-4.021-2.719-6.086-2.719c-1.508,0-2.457,0.786-2.567,1.672
	c-0.121,0.981,1.219,1.539,2.974,2.193c2.984,1.018,6.947,2.621,6.455,6.586c-0.494,3.965-4.263,7.373-9.797,7.373
	c-4.456,0-8.182-1.671-9.902-4.162L178.212,52.632z M78.713,22.551h-4.131l-3.396,9.83h-7.481L73.706,3.374h13.22
	c5.001,0,8.988,3.262,8.339,8.48c-0.643,5.175-4.615,9.134-9.018,10.264l2.203,10.264h-8.263L78.713,22.551z M87.389,12.593
	c0.216-1.74-1.028-2.914-2.812-2.914H79.01l-2.246,6.523h5.784C85.244,16.203,87.112,14.811,87.389,12.593z M114.559,2.896
	c8.308,0,14.051,5.218,13.071,13.09c-1.169,9.394-9.412,16.917-19.239,16.917c-8.307,0-14.05-5.218-13.06-13.176
	C96.494,10.375,104.729,2.896,114.559,2.896z M113.301,9.505c-5.089,0-9.461,4.393-10.126,9.742
	c-0.525,4.218,2.167,7.046,6.474,7.046c5.088,0,9.461-4.392,10.127-9.742C120.3,12.332,117.605,9.505,113.301,9.505z M137.132,9.896
	h-8.133l2.289-6.523h23.701l-2.247,6.523h-8.133L136.9,32.38h-7.481L137.132,9.896z M157.839,3.374h21.267L176.93,9.68h-13.785
	l-1.646,4.827h13.437l-2.18,6.35h-13.438l-1.824,5.218h13.785l-2.176,6.306h-21.266L157.839,3.374z M195.561,2.896
	c7.828,0,11.369,4.392,12.328,8.915l-7.511,2.348c-0.463-2.913-2.769-4.653-5.987-4.653c-5.045,0-9.549,4.393-10.214,9.742
	c-0.485,3.914,1.95,7.046,6.474,7.046c2.347,0,5.174-1.393,6.722-3.349l5.353,3.826c-4.068,4.741-9.461,6.131-13.332,6.131
	c-8.176,0-14.064-5.087-13.059-13.176C177.594,9.592,186.255,2.896,195.561,2.896z M37.104,0.245
	c-3.833-0.023-7.031,3.512-7.05,3.532L0.236,32.381h9.962l6.013-6.479h11.298l-2.508,6.479h8.312L43.383,4.73
	c0,0,1.204-3.75,5.452-3.817l0.087-0.692L37.104,0.245z M29.933,20.138h-8.456c11.159-11.663,0.699-0.731,10.156-10.662
	c2.767-2.964,3.71-2.373,3.71-2.373L29.933,20.138z M67.181,9.679l2.176-6.306H52.236l0.001-0.011c-0.056,0-0.104,0.009-0.158,0.011
	c-3.561,0.138-4.929,2.872-5.237,3.624c-0.05,0.12-0.075,0.193-0.075,0.193h0.008L38.09,32.38h21.267l2.176-6.306H47.746
	l1.823-5.218h13.438l2.183-6.35H51.751l1.644-4.827H67.181z"/>
</svg>
